<svg width="300" height="300" viewBox="0 0 300 300" fill="none" xmlns="http://www.w3.org/2000/svg">
<rect width="300" height="300" rx="12" fill="black" fill-opacity="0.03"/>
<rect x="0.75" y="0.75" width="298.5" height="298.5" rx="11.25" stroke="black" stroke-opacity="0.2" stroke-width="1.5" stroke-dasharray="5 5"/>
<path d="M179.167 86.3333V144.667H120.833V86.3333H179.167ZM179.167 78H120.833C116.25 78 112.5 81.75 112.5 86.3333V144.667C112.5 149.25 116.25 153 120.833 153H179.167C183.75 153 187.5 149.25 187.5 144.667V86.3333C187.5 81.75 183.75 78 179.167 78ZM158.917 114.917L146.417 131.042L137.5 120.25L125 136.333H175L158.917 114.917Z" fill="black"/>
<path d="M66.1709 191.5H63.0289V181.318H66.3101C67.2978 181.318 68.143 181.522 68.8456 181.93C69.5483 182.334 70.0869 182.916 70.4614 183.675C70.8359 184.43 71.0232 185.335 71.0232 186.389C71.0232 187.45 70.8343 188.363 70.4564 189.129C70.0786 189.891 69.5284 190.478 68.8058 190.888C68.0833 191.296 67.205 191.5 66.1709 191.5ZM64.2618 190.406H66.0914C66.9332 190.406 67.6309 190.244 68.1844 189.919C68.7379 189.594 69.1505 189.132 69.4223 188.532C69.6941 187.932 69.83 187.218 69.83 186.389C69.83 185.567 69.6958 184.86 69.4273 184.266C69.1588 183.67 68.7578 183.212 68.2242 182.894C67.6905 182.573 67.026 182.412 66.2306 182.412H64.2618V190.406ZM72.9323 191.5V183.864H74.0658V185.017H74.1453C74.2845 184.639 74.5364 184.333 74.901 184.097C75.2656 183.862 75.6766 183.744 76.134 183.744C76.2201 183.744 76.3279 183.746 76.4571 183.749C76.5864 183.753 76.6842 183.758 76.7504 183.764V184.957C76.7107 184.947 76.6195 184.933 76.477 184.913C76.3378 184.889 76.1903 184.878 76.0345 184.878C75.6633 184.878 75.3319 184.956 75.0402 185.112C74.7519 185.264 74.5232 185.476 74.3541 185.748C74.1884 186.016 74.1056 186.323 74.1056 186.668V191.5H72.9323ZM80.3884 191.679C79.9045 191.679 79.4653 191.588 79.0709 191.406C78.6765 191.22 78.3633 190.953 78.1313 190.605C77.8993 190.254 77.7833 189.83 77.7833 189.332C77.7833 188.895 77.8695 188.54 78.0418 188.268C78.2142 187.993 78.4445 187.778 78.7329 187.622C79.0212 187.466 79.3394 187.35 79.6874 187.274C80.0387 187.195 80.3917 187.132 80.7464 187.085C81.2104 187.026 81.5866 186.981 81.8749 186.951C82.1666 186.918 82.3787 186.863 82.5113 186.787C82.6472 186.711 82.7151 186.578 82.7151 186.389V186.349C82.7151 185.859 82.5809 185.478 82.3124 185.206C82.0473 184.934 81.6446 184.798 81.1043 184.798C80.5442 184.798 80.105 184.921 79.7868 185.166C79.4687 185.411 79.2449 185.673 79.1157 185.952L78.002 185.554C78.2009 185.09 78.4661 184.729 78.7975 184.47C79.1323 184.208 79.4968 184.026 79.8912 183.923C80.289 183.817 80.6801 183.764 81.0645 183.764C81.3098 183.764 81.5915 183.794 81.9097 183.854C82.2312 183.91 82.5411 184.028 82.8394 184.207C83.141 184.386 83.3912 184.656 83.5901 185.017C83.789 185.378 83.8884 185.862 83.8884 186.469V191.5H82.7151V190.466H82.6555C82.5759 190.632 82.4433 190.809 82.2577 190.998C82.0721 191.187 81.8252 191.348 81.517 191.48C81.2087 191.613 80.8325 191.679 80.3884 191.679ZM80.5674 190.625C81.0314 190.625 81.4225 190.534 81.7407 190.352C82.0622 190.169 82.3041 189.934 82.4665 189.646C82.6323 189.357 82.7151 189.054 82.7151 188.736V187.662C82.6654 187.722 82.556 187.776 82.387 187.826C82.2213 187.872 82.029 187.914 81.8103 187.95C81.5948 187.983 81.3844 188.013 81.1789 188.04C80.9767 188.063 80.8126 188.083 80.6867 188.099C80.3818 188.139 80.0967 188.204 79.8316 188.293C79.5698 188.379 79.3576 188.51 79.1952 188.686C79.0361 188.858 78.9566 189.094 78.9566 189.392C78.9566 189.8 79.1074 190.108 79.409 190.317C79.7139 190.522 80.1001 190.625 80.5674 190.625ZM89.1123 194.523C88.5455 194.523 88.0583 194.45 87.6507 194.304C87.243 194.161 86.9033 193.973 86.6315 193.737C86.363 193.505 86.1492 193.257 85.9901 192.991L86.9248 192.335C87.0309 192.474 87.1651 192.634 87.3275 192.812C87.4899 192.995 87.712 193.152 87.9937 193.285C88.2787 193.421 88.6516 193.489 89.1123 193.489C89.7288 193.489 90.2375 193.339 90.6386 193.041C91.0396 192.743 91.2401 192.276 91.2401 191.639V190.088H91.1407C91.0545 190.227 90.9319 190.4 90.7728 190.605C90.617 190.807 90.3917 190.988 90.0967 191.147C89.805 191.303 89.4106 191.381 88.9134 191.381C88.297 191.381 87.7435 191.235 87.2529 190.943C86.7657 190.652 86.3796 190.227 86.0945 189.67C85.8128 189.114 85.672 188.437 85.672 187.642C85.672 186.86 85.8095 186.179 86.0846 185.599C86.3597 185.015 86.7425 184.565 87.233 184.246C87.7236 183.925 88.2903 183.764 88.9333 183.764C89.4305 183.764 89.8249 183.847 90.1166 184.013C90.4115 184.175 90.6369 184.361 90.7927 184.57C90.9518 184.775 91.0744 184.944 91.1606 185.077H91.2799V183.864H92.4134V191.719C92.4134 192.375 92.2643 192.909 91.966 193.32C91.671 193.734 91.2733 194.037 90.7728 194.229C90.2757 194.425 89.7222 194.523 89.1123 194.523ZM89.0725 190.327C89.5432 190.327 89.9409 190.219 90.2657 190.004C90.5905 189.788 90.8374 189.478 91.0065 189.074C91.1755 188.67 91.26 188.186 91.26 187.622C91.26 187.072 91.1772 186.586 91.0115 186.165C90.8457 185.745 90.6005 185.415 90.2757 185.176C89.9508 184.937 89.5498 184.818 89.0725 184.818C88.5754 184.818 88.1611 184.944 87.8296 185.196C87.5015 185.448 87.2546 185.786 87.0889 186.21C86.9265 186.634 86.8453 187.105 86.8453 187.622C86.8453 188.152 86.9281 188.621 87.0938 189.029C87.2629 189.433 87.5115 189.752 87.8396 189.984C88.171 190.212 88.582 190.327 89.0725 190.327ZM100.746 191.679C100.262 191.679 99.8228 191.588 99.4284 191.406C99.0339 191.22 98.7207 190.953 98.4887 190.605C98.2567 190.254 98.1407 189.83 98.1407 189.332C98.1407 188.895 98.2269 188.54 98.3992 188.268C98.5716 187.993 98.8019 187.778 99.0903 187.622C99.3786 187.466 99.6968 187.35 100.045 187.274C100.396 187.195 100.749 187.132 101.104 187.085C101.568 187.026 101.944 186.981 102.232 186.951C102.524 186.918 102.736 186.863 102.869 186.787C103.005 186.711 103.073 186.578 103.073 186.389V186.349C103.073 185.859 102.938 185.478 102.67 185.206C102.405 184.934 102.002 184.798 101.462 184.798C100.902 184.798 100.462 184.921 100.144 185.166C99.8261 185.411 99.6024 185.673 99.4731 185.952L98.3595 185.554C98.5583 185.09 98.8235 184.729 99.1549 184.47C99.4897 184.208 99.8543 184.026 100.249 183.923C100.646 183.817 101.037 183.764 101.422 183.764C101.667 183.764 101.949 183.794 102.267 183.854C102.589 183.91 102.899 184.028 103.197 184.207C103.498 184.386 103.749 184.656 103.948 185.017C104.146 185.378 104.246 185.862 104.246 186.469V191.5H103.073V190.466H103.013C102.933 190.632 102.801 190.809 102.615 190.998C102.43 191.187 102.183 191.348 101.874 191.48C101.566 191.613 101.19 191.679 100.746 191.679ZM100.925 190.625C101.389 190.625 101.78 190.534 102.098 190.352C102.42 190.169 102.662 189.934 102.824 189.646C102.99 189.357 103.073 189.054 103.073 188.736V187.662C103.023 187.722 102.913 187.776 102.744 187.826C102.579 187.872 102.386 187.914 102.168 187.95C101.952 187.983 101.742 188.013 101.536 188.04C101.334 188.063 101.17 188.083 101.044 188.099C100.739 188.139 100.454 188.204 100.189 188.293C99.9272 188.379 99.7151 188.51 99.5526 188.686C99.3936 188.858 99.314 189.094 99.314 189.392C99.314 189.8 99.4648 190.108 99.7664 190.317C100.071 190.522 100.457 190.625 100.925 190.625ZM107.561 186.906V191.5H106.387V183.864H107.521V185.057H107.62C107.799 184.669 108.071 184.357 108.436 184.122C108.8 183.884 109.271 183.764 109.848 183.764C110.365 183.764 110.817 183.87 111.205 184.082C111.593 184.291 111.894 184.609 112.11 185.037C112.325 185.461 112.433 185.998 112.433 186.648V191.5H111.259V186.727C111.259 186.127 111.104 185.66 110.792 185.325C110.481 184.987 110.053 184.818 109.509 184.818C109.135 184.818 108.8 184.899 108.505 185.062C108.214 185.224 107.983 185.461 107.814 185.773C107.645 186.084 107.561 186.462 107.561 186.906ZM117.46 191.659C116.824 191.659 116.262 191.498 115.775 191.177C115.288 190.852 114.907 190.395 114.631 189.805C114.356 189.211 114.219 188.51 114.219 187.702C114.219 186.9 114.356 186.204 114.631 185.614C114.907 185.024 115.289 184.568 115.78 184.246C116.27 183.925 116.837 183.764 117.48 183.764C117.977 183.764 118.37 183.847 118.658 184.013C118.95 184.175 119.172 184.361 119.325 184.57C119.48 184.775 119.601 184.944 119.688 185.077H119.787V181.318H120.96V191.5H119.827V190.327H119.688C119.601 190.466 119.479 190.642 119.32 190.854C119.161 191.062 118.934 191.25 118.639 191.415C118.344 191.578 117.951 191.659 117.46 191.659ZM117.619 190.605C118.09 190.605 118.488 190.482 118.813 190.237C119.137 189.989 119.384 189.646 119.553 189.208C119.722 188.767 119.807 188.259 119.807 187.682C119.807 187.112 119.724 186.613 119.558 186.185C119.393 185.754 119.147 185.42 118.823 185.181C118.498 184.939 118.097 184.818 117.619 184.818C117.122 184.818 116.708 184.946 116.377 185.201C116.048 185.453 115.801 185.796 115.636 186.23C115.473 186.661 115.392 187.145 115.392 187.682C115.392 188.225 115.475 188.719 115.641 189.163C115.81 189.604 116.058 189.955 116.386 190.217C116.718 190.476 117.129 190.605 117.619 190.605ZM130.093 191.659C129.457 191.659 128.895 191.498 128.408 191.177C127.921 190.852 127.539 190.395 127.264 189.805C126.989 189.211 126.852 188.51 126.852 187.702C126.852 186.9 126.989 186.204 127.264 185.614C127.539 185.024 127.922 184.568 128.413 184.246C128.903 183.925 129.47 183.764 130.113 183.764C130.61 183.764 131.003 183.847 131.291 184.013C131.583 184.175 131.805 184.361 131.957 184.57C132.113 184.775 132.234 184.944 132.32 185.077H132.42V181.318H133.593V191.5H132.46V190.327H132.32C132.234 190.466 132.112 190.642 131.953 190.854C131.793 191.062 131.566 191.25 131.271 191.415C130.976 191.578 130.584 191.659 130.093 191.659ZM130.252 190.605C130.723 190.605 131.121 190.482 131.445 190.237C131.77 189.989 132.017 189.646 132.186 189.208C132.355 188.767 132.44 188.259 132.44 187.682C132.44 187.112 132.357 186.613 132.191 186.185C132.025 185.754 131.78 185.42 131.455 185.181C131.131 184.939 130.729 184.818 130.252 184.818C129.755 184.818 129.341 184.946 129.009 185.201C128.681 185.453 128.434 185.796 128.269 186.23C128.106 186.661 128.025 187.145 128.025 187.682C128.025 188.225 128.108 188.719 128.274 189.163C128.443 189.604 128.691 189.955 129.019 190.217C129.351 190.476 129.762 190.605 130.252 190.605ZM135.905 191.5V183.864H137.038V185.017H137.118C137.257 184.639 137.509 184.333 137.874 184.097C138.238 183.862 138.649 183.744 139.107 183.744C139.193 183.744 139.301 183.746 139.43 183.749C139.559 183.753 139.657 183.758 139.723 183.764V184.957C139.683 184.947 139.592 184.933 139.45 184.913C139.31 184.889 139.163 184.878 139.007 184.878C138.636 184.878 138.305 184.956 138.013 185.112C137.725 185.264 137.496 185.476 137.327 185.748C137.161 186.016 137.078 186.323 137.078 186.668V191.5H135.905ZM143.984 191.659C143.294 191.659 142.689 191.495 142.169 191.167C141.652 190.839 141.248 190.38 140.956 189.79C140.668 189.2 140.524 188.51 140.524 187.722C140.524 186.926 140.668 186.232 140.956 185.638C141.248 185.045 141.652 184.585 142.169 184.256C142.689 183.928 143.294 183.764 143.984 183.764C144.673 183.764 145.276 183.928 145.793 184.256C146.314 184.585 146.718 185.045 147.006 185.638C147.298 186.232 147.444 186.926 147.444 187.722C147.444 188.51 147.298 189.2 147.006 189.79C146.718 190.38 146.314 190.839 145.793 191.167C145.276 191.495 144.673 191.659 143.984 191.659ZM143.984 190.605C144.507 190.605 144.938 190.471 145.276 190.202C145.614 189.934 145.865 189.581 146.027 189.143C146.189 188.706 146.271 188.232 146.271 187.722C146.271 187.211 146.189 186.736 146.027 186.295C145.865 185.854 145.614 185.498 145.276 185.226C144.938 184.954 144.507 184.818 143.984 184.818C143.46 184.818 143.029 184.954 142.691 185.226C142.353 185.498 142.103 185.854 141.94 186.295C141.778 186.736 141.697 187.211 141.697 187.722C141.697 188.232 141.778 188.706 141.94 189.143C142.103 189.581 142.353 189.934 142.691 190.202C143.029 190.471 143.46 190.605 143.984 190.605ZM149.235 194.364V183.864H150.369V185.077H150.508C150.594 184.944 150.713 184.775 150.866 184.57C151.021 184.361 151.244 184.175 151.532 184.013C151.824 183.847 152.218 183.764 152.715 183.764C153.358 183.764 153.925 183.925 154.415 184.246C154.906 184.568 155.289 185.024 155.564 185.614C155.839 186.204 155.976 186.9 155.976 187.702C155.976 188.51 155.839 189.211 155.564 189.805C155.289 190.395 154.908 190.852 154.42 191.177C153.933 191.498 153.371 191.659 152.735 191.659C152.244 191.659 151.852 191.578 151.557 191.415C151.262 191.25 151.035 191.062 150.876 190.854C150.717 190.642 150.594 190.466 150.508 190.327H150.408V194.364H149.235ZM150.388 187.682C150.388 188.259 150.473 188.767 150.642 189.208C150.811 189.646 151.058 189.989 151.383 190.237C151.708 190.482 152.105 190.605 152.576 190.605C153.066 190.605 153.476 190.476 153.804 190.217C154.135 189.955 154.384 189.604 154.55 189.163C154.719 188.719 154.803 188.225 154.803 187.682C154.803 187.145 154.72 186.661 154.555 186.23C154.392 185.796 154.145 185.453 153.814 185.201C153.486 184.946 153.073 184.818 152.576 184.818C152.099 184.818 151.698 184.939 151.373 185.181C151.048 185.42 150.803 185.754 150.637 186.185C150.471 186.613 150.388 187.112 150.388 187.682ZM163.951 191.679C163.467 191.679 163.028 191.588 162.633 191.406C162.239 191.22 161.926 190.953 161.694 190.605C161.462 190.254 161.346 189.83 161.346 189.332C161.346 188.895 161.432 188.54 161.604 188.268C161.777 187.993 162.007 187.778 162.295 187.622C162.584 187.466 162.902 187.35 163.25 187.274C163.601 187.195 163.954 187.132 164.309 187.085C164.773 187.026 165.149 186.981 165.437 186.951C165.729 186.918 165.941 186.863 166.074 186.787C166.21 186.711 166.278 186.578 166.278 186.389V186.349C166.278 185.859 166.143 185.478 165.875 185.206C165.61 184.934 165.207 184.798 164.667 184.798C164.107 184.798 163.668 184.921 163.349 185.166C163.031 185.411 162.807 185.673 162.678 185.952L161.565 185.554C161.763 185.09 162.029 184.729 162.36 184.47C162.695 184.208 163.059 184.026 163.454 183.923C163.851 183.817 164.243 183.764 164.627 183.764C164.872 183.764 165.154 183.794 165.472 183.854C165.794 183.91 166.104 184.028 166.402 184.207C166.704 184.386 166.954 184.656 167.153 185.017C167.351 185.378 167.451 185.862 167.451 186.469V191.5H166.278V190.466H166.218C166.138 190.632 166.006 190.809 165.82 190.998C165.635 191.187 165.388 191.348 165.079 191.48C164.771 191.613 164.395 191.679 163.951 191.679ZM164.13 190.625C164.594 190.625 164.985 190.534 165.303 190.352C165.625 190.169 165.867 189.934 166.029 189.646C166.195 189.357 166.278 189.054 166.278 188.736V187.662C166.228 187.722 166.119 187.776 165.949 187.826C165.784 187.872 165.592 187.914 165.373 187.95C165.157 187.983 164.947 188.013 164.741 188.04C164.539 188.063 164.375 188.083 164.249 188.099C163.944 188.139 163.659 188.204 163.394 188.293C163.132 188.379 162.92 188.51 162.758 188.686C162.599 188.858 162.519 189.094 162.519 189.392C162.519 189.8 162.67 190.108 162.972 190.317C163.276 190.522 163.663 190.625 164.13 190.625ZM170.766 186.906V191.5H169.592V183.864H170.726V185.057H170.825C171.004 184.669 171.276 184.357 171.641 184.122C172.005 183.884 172.476 183.764 173.053 183.764C173.57 183.764 174.022 183.87 174.41 184.082C174.798 184.291 175.099 184.609 175.315 185.037C175.53 185.461 175.638 185.998 175.638 186.648V191.5H174.465V186.727C174.465 186.127 174.309 185.66 173.997 185.325C173.686 184.987 173.258 184.818 172.715 184.818C172.34 184.818 172.005 184.899 171.71 185.062C171.419 185.224 171.188 185.461 171.019 185.773C170.85 186.084 170.766 186.462 170.766 186.906ZM181.719 191.5V183.864H182.893V191.5H181.719ZM182.316 182.591C182.087 182.591 181.89 182.513 181.724 182.357C181.562 182.201 181.481 182.014 181.481 181.795C181.481 181.577 181.562 181.389 181.724 181.234C181.89 181.078 182.087 181 182.316 181C182.545 181 182.74 181.078 182.903 181.234C183.068 181.389 183.151 181.577 183.151 181.795C183.151 182.014 183.068 182.201 182.903 182.357C182.74 182.513 182.545 182.591 182.316 182.591ZM185.042 191.5V183.864H186.175V185.057H186.275C186.434 184.649 186.691 184.333 187.045 184.107C187.4 183.879 187.826 183.764 188.323 183.764C188.827 183.764 189.246 183.879 189.581 184.107C189.919 184.333 190.182 184.649 190.371 185.057H190.451C190.646 184.662 190.94 184.349 191.331 184.117C191.722 183.882 192.191 183.764 192.738 183.764C193.42 183.764 193.979 183.978 194.413 184.406C194.847 184.83 195.064 185.491 195.064 186.389V191.5H193.891V186.389C193.891 185.826 193.737 185.423 193.429 185.181C193.12 184.939 192.758 184.818 192.34 184.818C191.803 184.818 191.387 184.981 191.092 185.305C190.797 185.627 190.65 186.035 190.65 186.528V191.5H189.456V186.27C189.456 185.836 189.316 185.486 189.034 185.221C188.752 184.952 188.389 184.818 187.945 184.818C187.64 184.818 187.355 184.899 187.09 185.062C186.828 185.224 186.616 185.45 186.454 185.738C186.294 186.023 186.215 186.353 186.215 186.727V191.5H185.042ZM199.457 191.679C198.973 191.679 198.534 191.588 198.139 191.406C197.745 191.22 197.432 190.953 197.2 190.605C196.968 190.254 196.852 189.83 196.852 189.332C196.852 188.895 196.938 188.54 197.11 188.268C197.283 187.993 197.513 187.778 197.801 187.622C198.09 187.466 198.408 187.35 198.756 187.274C199.107 187.195 199.46 187.132 199.815 187.085C200.279 187.026 200.655 186.981 200.943 186.951C201.235 186.918 201.447 186.863 201.58 186.787C201.716 186.711 201.783 186.578 201.783 186.389V186.349C201.783 185.859 201.649 185.478 201.381 185.206C201.116 184.934 200.713 184.798 200.173 184.798C199.613 184.798 199.173 184.921 198.855 185.166C198.537 185.411 198.313 185.673 198.184 185.952L197.07 185.554C197.269 185.09 197.534 184.729 197.866 184.47C198.201 184.208 198.565 184.026 198.96 183.923C199.357 183.817 199.748 183.764 200.133 183.764C200.378 183.764 200.66 183.794 200.978 183.854C201.3 183.91 201.609 184.028 201.908 184.207C202.209 184.386 202.46 184.656 202.658 185.017C202.857 185.378 202.957 185.862 202.957 186.469V191.5H201.783V190.466H201.724C201.644 190.632 201.512 190.809 201.326 190.998C201.14 191.187 200.894 191.348 200.585 191.48C200.277 191.613 199.901 191.679 199.457 191.679ZM199.636 190.625C200.1 190.625 200.491 190.534 200.809 190.352C201.131 190.169 201.372 189.934 201.535 189.646C201.701 189.357 201.783 189.054 201.783 188.736V187.662C201.734 187.722 201.624 187.776 201.455 187.826C201.29 187.872 201.097 187.914 200.879 187.95C200.663 187.983 200.453 188.013 200.247 188.04C200.045 188.063 199.881 188.083 199.755 188.099C199.45 188.139 199.165 188.204 198.9 188.293C198.638 188.379 198.426 188.51 198.264 188.686C198.104 188.858 198.025 189.094 198.025 189.392C198.025 189.8 198.176 190.108 198.477 190.317C198.782 190.522 199.168 190.625 199.636 190.625ZM208.181 194.523C207.614 194.523 207.127 194.45 206.719 194.304C206.311 194.161 205.972 193.973 205.7 193.737C205.431 193.505 205.218 193.257 205.059 192.991L205.993 192.335C206.099 192.474 206.233 192.634 206.396 192.812C206.558 192.995 206.78 193.152 207.062 193.285C207.347 193.421 207.72 193.489 208.181 193.489C208.797 193.489 209.306 193.339 209.707 193.041C210.108 192.743 210.309 192.276 210.309 191.639V190.088H210.209C210.123 190.227 210 190.4 209.841 190.605C209.685 190.807 209.46 190.988 209.165 191.147C208.873 191.303 208.479 191.381 207.982 191.381C207.365 191.381 206.812 191.235 206.321 190.943C205.834 190.652 205.448 190.227 205.163 189.67C204.881 189.114 204.74 188.437 204.74 187.642C204.74 186.86 204.878 186.179 205.153 185.599C205.428 185.015 205.811 184.565 206.301 184.246C206.792 183.925 207.359 183.764 208.002 183.764C208.499 183.764 208.893 183.847 209.185 184.013C209.48 184.175 209.705 184.361 209.861 184.57C210.02 184.775 210.143 184.944 210.229 185.077H210.348V183.864H211.482V191.719C211.482 192.375 211.333 192.909 211.034 193.32C210.739 193.734 210.342 194.037 209.841 194.229C209.344 194.425 208.791 194.523 208.181 194.523ZM208.141 190.327C208.612 190.327 209.009 190.219 209.334 190.004C209.659 189.788 209.906 189.478 210.075 189.074C210.244 188.67 210.328 188.186 210.328 187.622C210.328 187.072 210.246 186.586 210.08 186.165C209.914 185.745 209.669 185.415 209.344 185.176C209.019 184.937 208.618 184.818 208.141 184.818C207.644 184.818 207.229 184.944 206.898 185.196C206.57 185.448 206.323 185.786 206.157 186.21C205.995 186.634 205.914 187.105 205.914 187.622C205.914 188.152 205.996 188.621 206.162 189.029C206.331 189.433 206.58 189.752 206.908 189.984C207.239 190.212 207.65 190.327 208.141 190.327ZM216.831 191.659C216.095 191.659 215.461 191.497 214.927 191.172C214.397 190.844 213.987 190.386 213.699 189.8C213.414 189.21 213.272 188.524 213.272 187.741C213.272 186.959 213.414 186.27 213.699 185.673C213.987 185.073 214.389 184.606 214.902 184.271C215.419 183.933 216.023 183.764 216.712 183.764C217.11 183.764 217.502 183.83 217.89 183.963C218.278 184.096 218.631 184.311 218.949 184.609C219.267 184.904 219.521 185.295 219.71 185.783C219.899 186.27 219.993 186.87 219.993 187.582V188.08H214.107V187.065H218.8C218.8 186.634 218.714 186.25 218.541 185.912C218.372 185.574 218.13 185.307 217.816 185.112C217.504 184.916 217.136 184.818 216.712 184.818C216.245 184.818 215.84 184.934 215.499 185.166C215.161 185.395 214.901 185.693 214.718 186.061C214.536 186.429 214.445 186.823 214.445 187.244V187.92C214.445 188.497 214.544 188.986 214.743 189.387C214.945 189.785 215.225 190.088 215.583 190.297C215.941 190.502 216.357 190.605 216.831 190.605C217.139 190.605 217.418 190.562 217.666 190.476C217.918 190.386 218.135 190.254 218.318 190.078C218.5 189.899 218.641 189.677 218.74 189.412L219.874 189.73C219.755 190.115 219.554 190.453 219.272 190.744C218.991 191.033 218.643 191.258 218.228 191.42C217.814 191.58 217.348 191.659 216.831 191.659ZM228.818 191.659C228.128 191.659 227.523 191.495 227.003 191.167C226.486 190.839 226.082 190.38 225.79 189.79C225.502 189.2 225.358 188.51 225.358 187.722C225.358 186.926 225.502 186.232 225.79 185.638C226.082 185.045 226.486 184.585 227.003 184.256C227.523 183.928 228.128 183.764 228.818 183.764C229.507 183.764 230.11 183.928 230.627 184.256C231.148 184.585 231.552 185.045 231.84 185.638C232.132 186.232 232.278 186.926 232.278 187.722C232.278 188.51 232.132 189.2 231.84 189.79C231.552 190.38 231.148 190.839 230.627 191.167C230.11 191.495 229.507 191.659 228.818 191.659ZM228.818 190.605C229.341 190.605 229.772 190.471 230.11 190.202C230.448 189.934 230.699 189.581 230.861 189.143C231.023 188.706 231.105 188.232 231.105 187.722C231.105 187.211 231.023 186.736 230.861 186.295C230.699 185.854 230.448 185.498 230.11 185.226C229.772 184.954 229.341 184.818 228.818 184.818C228.294 184.818 227.863 184.954 227.525 185.226C227.187 185.498 226.937 185.854 226.774 186.295C226.612 186.736 226.531 187.211 226.531 187.722C226.531 188.232 226.612 188.706 226.774 189.143C226.937 189.581 227.187 189.934 227.525 190.202C227.863 190.471 228.294 190.605 228.818 190.605ZM234.069 191.5V183.864H235.203V185.017H235.282C235.421 184.639 235.673 184.333 236.038 184.097C236.402 183.862 236.813 183.744 237.271 183.744C237.357 183.744 237.465 183.746 237.594 183.749C237.723 183.753 237.821 183.758 237.887 183.764V184.957C237.847 184.947 237.756 184.933 237.614 184.913C237.475 184.889 237.327 184.878 237.171 184.878C236.8 184.878 236.469 184.956 236.177 185.112C235.889 185.264 235.66 185.476 235.491 185.748C235.325 186.016 235.242 186.323 235.242 186.668V191.5H234.069ZM104.502 208.5V198.318H108.062C108.771 198.318 109.356 198.441 109.817 198.686C110.278 198.928 110.621 199.254 110.846 199.665C111.072 200.073 111.184 200.526 111.184 201.023C111.184 201.46 111.106 201.821 110.951 202.107C110.798 202.392 110.596 202.617 110.344 202.783C110.096 202.948 109.825 203.071 109.534 203.151V203.25C109.845 203.27 110.158 203.379 110.473 203.578C110.788 203.777 111.052 204.062 111.264 204.433C111.476 204.804 111.582 205.259 111.582 205.795C111.582 206.306 111.466 206.765 111.234 207.173C111.002 207.58 110.636 207.903 110.135 208.142C109.635 208.381 108.984 208.5 108.181 208.5H104.502ZM105.735 207.406H108.181C108.987 207.406 109.559 207.25 109.897 206.939C110.238 206.624 110.409 206.243 110.409 205.795C110.409 205.451 110.321 205.133 110.145 204.841C109.97 204.546 109.719 204.311 109.395 204.135C109.07 203.956 108.685 203.866 108.241 203.866H105.735V207.406ZM105.735 202.793H108.022C108.394 202.793 108.728 202.72 109.027 202.574C109.328 202.428 109.567 202.223 109.743 201.957C109.922 201.692 110.011 201.381 110.011 201.023C110.011 200.575 109.855 200.196 109.544 199.884C109.232 199.569 108.738 199.412 108.062 199.412H105.735V202.793ZM113.449 208.5V200.864H114.582V202.017H114.662C114.801 201.639 115.053 201.333 115.418 201.097C115.782 200.862 116.193 200.744 116.651 200.744C116.737 200.744 116.844 200.746 116.974 200.749C117.103 200.753 117.201 200.758 117.267 200.764V201.957C117.227 201.947 117.136 201.933 116.994 201.913C116.854 201.889 116.707 201.878 116.551 201.878C116.18 201.878 115.848 201.956 115.557 202.112C115.268 202.264 115.04 202.476 114.871 202.748C114.705 203.016 114.622 203.323 114.622 203.668V208.5H113.449ZM121.528 208.659C120.838 208.659 120.233 208.495 119.713 208.167C119.196 207.839 118.792 207.38 118.5 206.79C118.212 206.2 118.067 205.51 118.067 204.722C118.067 203.926 118.212 203.232 118.5 202.638C118.792 202.045 119.196 201.585 119.713 201.256C120.233 200.928 120.838 200.764 121.528 200.764C122.217 200.764 122.82 200.928 123.337 201.256C123.858 201.585 124.262 202.045 124.55 202.638C124.842 203.232 124.988 203.926 124.988 204.722C124.988 205.51 124.842 206.2 124.55 206.79C124.262 207.38 123.858 207.839 123.337 208.167C122.82 208.495 122.217 208.659 121.528 208.659ZM121.528 207.605C122.051 207.605 122.482 207.471 122.82 207.202C123.158 206.934 123.409 206.581 123.571 206.143C123.733 205.706 123.815 205.232 123.815 204.722C123.815 204.211 123.733 203.736 123.571 203.295C123.409 202.854 123.158 202.498 122.82 202.226C122.482 201.954 122.051 201.818 121.528 201.818C121.004 201.818 120.573 201.954 120.235 202.226C119.897 202.498 119.647 202.854 119.484 203.295C119.322 203.736 119.241 204.211 119.241 204.722C119.241 205.232 119.322 205.706 119.484 206.143C119.647 206.581 119.897 206.934 120.235 207.202C120.573 207.471 121.004 207.605 121.528 207.605ZM128.249 208.5L125.923 200.864H127.156L128.806 206.71H128.886L130.516 200.864H131.769L133.38 206.69H133.46L135.11 200.864H136.343L134.016 208.5H132.863L131.192 202.634H131.073L129.403 208.5H128.249ZM143.303 202.574L142.249 202.872C142.183 202.696 142.085 202.526 141.956 202.36C141.83 202.191 141.658 202.052 141.439 201.942C141.22 201.833 140.94 201.778 140.599 201.778C140.131 201.778 139.742 201.886 139.43 202.102C139.122 202.314 138.968 202.584 138.968 202.912C138.968 203.204 139.074 203.434 139.286 203.603C139.498 203.772 139.83 203.913 140.281 204.026L141.414 204.304C142.097 204.47 142.606 204.723 142.94 205.065C143.275 205.403 143.442 205.839 143.442 206.372C143.442 206.81 143.317 207.201 143.065 207.545C142.816 207.89 142.468 208.162 142.021 208.361C141.573 208.56 141.053 208.659 140.46 208.659C139.681 208.659 139.036 208.49 138.526 208.152C138.015 207.814 137.692 207.32 137.556 206.67L138.67 206.392C138.776 206.803 138.976 207.111 139.271 207.317C139.57 207.522 139.959 207.625 140.44 207.625C140.987 207.625 141.421 207.509 141.742 207.277C142.067 207.042 142.229 206.76 142.229 206.432C142.229 206.167 142.137 205.945 141.951 205.766C141.765 205.583 141.48 205.447 141.096 205.358L139.823 205.06C139.124 204.894 138.61 204.637 138.282 204.289C137.957 203.938 137.795 203.499 137.795 202.972C137.795 202.541 137.916 202.16 138.158 201.828C138.403 201.497 138.736 201.237 139.157 201.048C139.581 200.859 140.062 200.764 140.599 200.764C141.354 200.764 141.948 200.93 142.379 201.261C142.813 201.593 143.121 202.03 143.303 202.574ZM148.41 208.659C147.675 208.659 147.04 208.497 146.506 208.172C145.976 207.844 145.567 207.386 145.278 206.8C144.993 206.21 144.851 205.524 144.851 204.741C144.851 203.959 144.993 203.27 145.278 202.673C145.567 202.073 145.968 201.606 146.481 201.271C146.998 200.933 147.602 200.764 148.291 200.764C148.689 200.764 149.081 200.83 149.469 200.963C149.857 201.096 150.21 201.311 150.528 201.609C150.846 201.904 151.1 202.295 151.289 202.783C151.478 203.27 151.572 203.87 151.572 204.582V205.08H145.686V204.065H150.379C150.379 203.634 150.293 203.25 150.121 202.912C149.952 202.574 149.71 202.307 149.395 202.112C149.083 201.916 148.715 201.818 148.291 201.818C147.824 201.818 147.419 201.934 147.078 202.166C146.74 202.395 146.48 202.693 146.297 203.061C146.115 203.429 146.024 203.823 146.024 204.244V204.92C146.024 205.497 146.123 205.986 146.322 206.387C146.524 206.785 146.805 207.088 147.162 207.297C147.52 207.502 147.936 207.605 148.41 207.605C148.719 207.605 148.997 207.562 149.246 207.476C149.497 207.386 149.715 207.254 149.897 207.078C150.079 206.899 150.22 206.677 150.319 206.412L151.453 206.73C151.334 207.115 151.133 207.453 150.851 207.744C150.57 208.033 150.222 208.258 149.807 208.42C149.393 208.58 148.927 208.659 148.41 208.659ZM157.454 198.318H158.925L162.385 206.77H162.505L165.965 198.318H167.437V208.5H166.283V200.764H166.184L163.002 208.5H161.888L158.706 200.764H158.607V208.5H157.454V198.318ZM172.951 208.659C172.216 208.659 171.581 208.497 171.047 208.172C170.517 207.844 170.108 207.386 169.819 206.8C169.534 206.21 169.392 205.524 169.392 204.741C169.392 203.959 169.534 203.27 169.819 202.673C170.108 202.073 170.509 201.606 171.022 201.271C171.539 200.933 172.143 200.764 172.832 200.764C173.23 200.764 173.623 200.83 174.01 200.963C174.398 201.096 174.751 201.311 175.069 201.609C175.387 201.904 175.641 202.295 175.83 202.783C176.019 203.27 176.113 203.87 176.113 204.582V205.08H170.227V204.065H174.92C174.92 203.634 174.834 203.25 174.662 202.912C174.493 202.574 174.251 202.307 173.936 202.112C173.624 201.916 173.256 201.818 172.832 201.818C172.365 201.818 171.96 201.934 171.619 202.166C171.281 202.395 171.021 202.693 170.838 203.061C170.656 203.429 170.565 203.823 170.565 204.244V204.92C170.565 205.497 170.664 205.986 170.863 206.387C171.065 206.785 171.346 207.088 171.703 207.297C172.061 207.502 172.477 207.605 172.951 207.605C173.26 207.605 173.538 207.562 173.787 207.476C174.038 207.386 174.256 207.254 174.438 207.078C174.62 206.899 174.761 206.677 174.86 206.412L175.994 206.73C175.875 207.115 175.674 207.453 175.392 207.744C175.111 208.033 174.763 208.258 174.348 208.42C173.934 208.58 173.468 208.659 172.951 208.659ZM180.782 208.659C180.145 208.659 179.583 208.498 179.096 208.177C178.609 207.852 178.228 207.395 177.953 206.805C177.678 206.211 177.54 205.51 177.54 204.702C177.54 203.9 177.678 203.204 177.953 202.614C178.228 202.024 178.611 201.568 179.101 201.246C179.592 200.925 180.158 200.764 180.801 200.764C181.299 200.764 181.691 200.847 181.98 201.013C182.271 201.175 182.493 201.361 182.646 201.57C182.802 201.775 182.923 201.944 183.009 202.077H183.108V198.318H184.282V208.5H183.148V207.327H183.009C182.923 207.466 182.8 207.642 182.641 207.854C182.482 208.062 182.255 208.25 181.96 208.415C181.665 208.578 181.272 208.659 180.782 208.659ZM180.941 207.605C181.411 207.605 181.809 207.482 182.134 207.237C182.459 206.989 182.706 206.646 182.875 206.208C183.044 205.767 183.128 205.259 183.128 204.682C183.128 204.112 183.045 203.613 182.88 203.185C182.714 202.754 182.469 202.42 182.144 202.181C181.819 201.939 181.418 201.818 180.941 201.818C180.444 201.818 180.029 201.946 179.698 202.201C179.37 202.453 179.123 202.796 178.957 203.23C178.795 203.661 178.713 204.145 178.713 204.682C178.713 205.225 178.796 205.719 178.962 206.163C179.131 206.604 179.38 206.955 179.708 207.217C180.039 207.476 180.45 207.605 180.941 207.605ZM186.593 208.5V200.864H187.767V208.5H186.593ZM187.19 199.591C186.961 199.591 186.764 199.513 186.598 199.357C186.436 199.201 186.355 199.014 186.355 198.795C186.355 198.577 186.436 198.389 186.598 198.234C186.764 198.078 186.961 198 187.19 198C187.419 198 187.614 198.078 187.777 198.234C187.942 198.389 188.025 198.577 188.025 198.795C188.025 199.014 187.942 199.201 187.777 199.357C187.614 199.513 187.419 199.591 187.19 199.591ZM192.163 208.679C191.679 208.679 191.24 208.588 190.845 208.406C190.451 208.22 190.138 207.953 189.906 207.605C189.674 207.254 189.558 206.83 189.558 206.332C189.558 205.895 189.644 205.54 189.816 205.268C189.989 204.993 190.219 204.778 190.507 204.622C190.796 204.466 191.114 204.35 191.462 204.274C191.813 204.195 192.166 204.132 192.521 204.085C192.985 204.026 193.361 203.981 193.649 203.951C193.941 203.918 194.153 203.863 194.286 203.787C194.422 203.711 194.49 203.578 194.49 203.389V203.349C194.49 202.859 194.355 202.478 194.087 202.206C193.822 201.934 193.419 201.798 192.879 201.798C192.319 201.798 191.879 201.921 191.561 202.166C191.243 202.411 191.019 202.673 190.89 202.952L189.776 202.554C189.975 202.09 190.24 201.729 190.572 201.47C190.907 201.208 191.271 201.026 191.666 200.923C192.063 200.817 192.454 200.764 192.839 200.764C193.084 200.764 193.366 200.794 193.684 200.854C194.006 200.91 194.316 201.028 194.614 201.207C194.915 201.386 195.166 201.656 195.365 202.017C195.563 202.378 195.663 202.862 195.663 203.469V208.5H194.49V207.466H194.43C194.35 207.632 194.218 207.809 194.032 207.998C193.847 208.187 193.6 208.348 193.291 208.48C192.983 208.613 192.607 208.679 192.163 208.679ZM192.342 207.625C192.806 207.625 193.197 207.534 193.515 207.352C193.837 207.169 194.079 206.934 194.241 206.646C194.407 206.357 194.49 206.054 194.49 205.736V204.662C194.44 204.722 194.33 204.776 194.161 204.826C193.996 204.872 193.803 204.914 193.585 204.95C193.369 204.983 193.159 205.013 192.953 205.04C192.751 205.063 192.587 205.083 192.461 205.099C192.156 205.139 191.871 205.204 191.606 205.293C191.344 205.379 191.132 205.51 190.97 205.686C190.811 205.858 190.731 206.094 190.731 206.392C190.731 206.8 190.882 207.108 191.183 207.317C191.488 207.522 191.874 207.625 192.342 207.625Z" fill="black"/>
<path d="M103.27 211.284H196.737V212.239H103.27V211.284Z" fill="black"/>
<path opacity="0.5" d="M71.4631 231.5V222.773H74.4119C75.0938 222.773 75.6534 222.889 76.0909 223.122C76.5284 223.352 76.8523 223.669 77.0625 224.072C77.2727 224.476 77.3778 224.935 77.3778 225.449C77.3778 225.963 77.2727 226.419 77.0625 226.817C76.8523 227.214 76.5298 227.527 76.0952 227.754C75.6605 227.979 75.1051 228.091 74.429 228.091H72.0426V227.136H74.3949C74.8608 227.136 75.2358 227.068 75.5199 226.932C75.8068 226.795 76.0142 226.602 76.142 226.352C76.2727 226.099 76.3381 225.798 76.3381 225.449C76.3381 225.099 76.2727 224.794 76.142 224.533C76.0114 224.271 75.8026 224.07 75.5156 223.928C75.2287 223.783 74.8494 223.71 74.3778 223.71H72.5199V231.5H71.4631ZM75.571 227.58L77.7188 231.5H76.4915L74.3778 227.58H75.571ZM81.6765 231.636C81.0458 231.636 80.5018 231.497 80.0444 231.219C79.5898 230.938 79.239 230.545 78.9918 230.043C78.7475 229.537 78.6254 228.949 78.6254 228.278C78.6254 227.608 78.7475 227.017 78.9918 226.506C79.239 225.991 79.5827 225.591 80.0231 225.304C80.4663 225.014 80.9833 224.869 81.5742 224.869C81.9151 224.869 82.2518 224.926 82.5842 225.04C82.9165 225.153 83.2191 225.338 83.4918 225.594C83.7646 225.847 83.9819 226.182 84.1438 226.599C84.3058 227.017 84.3867 227.531 84.3867 228.142V228.568H79.3413V227.699H83.364C83.364 227.33 83.2901 227 83.1424 226.71C82.9975 226.42 82.7901 226.192 82.5202 226.024C82.2532 225.857 81.9379 225.773 81.5742 225.773C81.1737 225.773 80.8271 225.872 80.5344 226.071C80.2447 226.267 80.0217 226.523 79.8654 226.838C79.7092 227.153 79.631 227.491 79.631 227.852V228.432C79.631 228.926 79.7163 229.345 79.8867 229.689C80.06 230.03 80.3001 230.29 80.6069 230.469C80.9137 230.645 81.2702 230.733 81.6765 230.733C81.9407 230.733 82.1793 230.696 82.3924 230.622C82.6083 230.545 82.7944 230.432 82.9506 230.281C83.1069 230.128 83.2276 229.937 83.3129 229.71L84.2844 229.983C84.1822 230.312 84.0103 230.602 83.7688 230.852C83.5273 231.099 83.229 231.293 82.8739 231.432C82.5188 231.568 82.1197 231.636 81.6765 231.636ZM88.5756 231.636C87.962 231.636 87.4336 231.491 86.9904 231.202C86.5472 230.912 86.2063 230.513 85.9677 230.004C85.729 229.496 85.6097 228.915 85.6097 228.261C85.6097 227.597 85.7319 227.01 85.9762 226.501C86.2234 225.99 86.5671 225.591 87.0075 225.304C87.4506 225.014 87.9677 224.869 88.5586 224.869C89.0188 224.869 89.4336 224.955 89.8029 225.125C90.1722 225.295 90.4748 225.534 90.7106 225.841C90.9464 226.148 91.0927 226.506 91.1495 226.915H90.1438C90.0671 226.616 89.8967 226.352 89.6325 226.122C89.3711 225.889 89.0188 225.773 88.5756 225.773C88.1836 225.773 87.8398 225.875 87.5444 226.08C87.2518 226.281 87.0231 226.567 86.8583 226.936C86.6964 227.303 86.6154 227.733 86.6154 228.227C86.6154 228.733 86.695 229.173 86.854 229.548C87.016 229.923 87.2433 230.214 87.5359 230.422C87.8313 230.629 88.1779 230.733 88.5756 230.733C88.837 230.733 89.0742 230.688 89.2873 230.597C89.5004 230.506 89.6808 230.375 89.8285 230.205C89.9762 230.034 90.0813 229.83 90.1438 229.591H91.1495C91.0927 229.977 90.9521 230.325 90.7276 230.635C90.506 230.942 90.212 231.186 89.8455 231.368C89.4819 231.547 89.0586 231.636 88.5756 231.636ZM95.2788 231.636C94.6879 231.636 94.1694 231.496 93.7234 231.214C93.2802 230.933 92.9336 230.54 92.6836 230.034C92.4364 229.528 92.3129 228.937 92.3129 228.261C92.3129 227.58 92.4364 226.984 92.6836 226.476C92.9336 225.967 93.2802 225.572 93.7234 225.291C94.1694 225.01 94.6879 224.869 95.2788 224.869C95.8697 224.869 96.3867 225.01 96.8299 225.291C97.2759 225.572 97.6225 225.967 97.8697 226.476C98.1197 226.984 98.2447 227.58 98.2447 228.261C98.2447 228.937 98.1197 229.528 97.8697 230.034C97.6225 230.54 97.2759 230.933 96.8299 231.214C96.3867 231.496 95.8697 231.636 95.2788 231.636ZM95.2788 230.733C95.7276 230.733 96.0969 230.618 96.3867 230.388C96.6765 230.158 96.891 229.855 97.0302 229.48C97.1694 229.105 97.239 228.699 97.239 228.261C97.239 227.824 97.1694 227.416 97.0302 227.038C96.891 226.661 96.6765 226.355 96.3867 226.122C96.0969 225.889 95.7276 225.773 95.2788 225.773C94.8299 225.773 94.4606 225.889 94.1708 226.122C93.881 226.355 93.6665 226.661 93.5273 227.038C93.3881 227.416 93.3185 227.824 93.3185 228.261C93.3185 228.699 93.3881 229.105 93.5273 229.48C93.6665 229.855 93.881 230.158 94.1708 230.388C94.4606 230.618 94.8299 230.733 95.2788 230.733ZM99.7798 231.5V224.955H100.751V225.977H100.837C100.973 225.628 101.193 225.357 101.497 225.163C101.801 224.967 102.166 224.869 102.592 224.869C103.024 224.869 103.384 224.967 103.67 225.163C103.96 225.357 104.186 225.628 104.348 225.977H104.416C104.584 225.639 104.835 225.371 105.17 225.172C105.506 224.97 105.908 224.869 106.376 224.869C106.962 224.869 107.44 225.053 107.812 225.419C108.185 225.783 108.371 226.349 108.371 227.119V231.5H107.365V227.119C107.365 226.636 107.233 226.291 106.969 226.084C106.705 225.876 106.393 225.773 106.036 225.773C105.575 225.773 105.219 225.912 104.966 226.19C104.713 226.466 104.587 226.815 104.587 227.239V231.5H103.564V227.017C103.564 226.645 103.443 226.345 103.202 226.118C102.96 225.888 102.649 225.773 102.268 225.773C102.007 225.773 101.763 225.842 101.536 225.982C101.311 226.121 101.129 226.314 100.99 226.561C100.854 226.805 100.786 227.088 100.786 227.409V231.5H99.7798ZM110.21 231.5V224.955H111.181V225.977H111.266C111.403 225.628 111.623 225.357 111.927 225.163C112.231 224.967 112.596 224.869 113.022 224.869C113.454 224.869 113.813 224.967 114.1 225.163C114.39 225.357 114.616 225.628 114.778 225.977H114.846C115.013 225.639 115.265 225.371 115.6 225.172C115.935 224.97 116.337 224.869 116.806 224.869C117.391 224.869 117.87 225.053 118.242 225.419C118.614 225.783 118.8 226.349 118.8 227.119V231.5H117.795V227.119C117.795 226.636 117.663 226.291 117.398 226.084C117.134 225.876 116.823 225.773 116.465 225.773C116.005 225.773 115.648 225.912 115.396 226.19C115.143 226.466 115.016 226.815 115.016 227.239V231.5H113.994V227.017C113.994 226.645 113.873 226.345 113.631 226.118C113.39 225.888 113.079 225.773 112.698 225.773C112.437 225.773 112.192 225.842 111.965 225.982C111.741 226.121 111.559 226.314 111.42 226.561C111.283 226.805 111.215 227.088 111.215 227.409V231.5H110.21ZM123.384 231.636C122.753 231.636 122.209 231.497 121.751 231.219C121.297 230.938 120.946 230.545 120.699 230.043C120.455 229.537 120.332 228.949 120.332 228.278C120.332 227.608 120.455 227.017 120.699 226.506C120.946 225.991 121.29 225.591 121.73 225.304C122.173 225.014 122.69 224.869 123.281 224.869C123.622 224.869 123.959 224.926 124.291 225.04C124.624 225.153 124.926 225.338 125.199 225.594C125.472 225.847 125.689 226.182 125.851 226.599C126.013 227.017 126.094 227.531 126.094 228.142V228.568H121.048V227.699H125.071C125.071 227.33 124.997 227 124.849 226.71C124.705 226.42 124.497 226.192 124.227 226.024C123.96 225.857 123.645 225.773 123.281 225.773C122.881 225.773 122.534 225.872 122.241 226.071C121.952 226.267 121.729 226.523 121.572 226.838C121.416 227.153 121.338 227.491 121.338 227.852V228.432C121.338 228.926 121.423 229.345 121.594 229.689C121.767 230.03 122.007 230.29 122.314 230.469C122.621 230.645 122.977 230.733 123.384 230.733C123.648 230.733 123.886 230.696 124.099 230.622C124.315 230.545 124.501 230.432 124.658 230.281C124.814 230.128 124.935 229.937 125.02 229.71L125.991 229.983C125.889 230.312 125.717 230.602 125.476 230.852C125.234 231.099 124.936 231.293 124.581 231.432C124.226 231.568 123.827 231.636 123.384 231.636ZM128.629 227.562V231.5H127.624V224.955H128.595V225.977H128.68C128.834 225.645 129.067 225.378 129.379 225.176C129.692 224.972 130.095 224.869 130.589 224.869C131.033 224.869 131.42 224.96 131.753 225.142C132.085 225.321 132.344 225.594 132.528 225.96C132.713 226.324 132.805 226.784 132.805 227.341V231.5H131.8V227.409C131.8 226.895 131.666 226.494 131.399 226.207C131.132 225.918 130.766 225.773 130.3 225.773C129.979 225.773 129.692 225.842 129.439 225.982C129.189 226.121 128.991 226.324 128.847 226.591C128.702 226.858 128.629 227.182 128.629 227.562ZM137.115 231.636C136.569 231.636 136.088 231.499 135.67 231.223C135.252 230.945 134.926 230.553 134.69 230.047C134.454 229.538 134.336 228.938 134.336 228.244C134.336 227.557 134.454 226.96 134.69 226.455C134.926 225.949 135.254 225.558 135.674 225.283C136.095 225.007 136.581 224.869 137.132 224.869C137.558 224.869 137.895 224.94 138.142 225.082C138.392 225.222 138.582 225.381 138.713 225.56C138.846 225.736 138.95 225.881 139.024 225.994H139.109V222.773H140.115V231.5H139.143V230.494H139.024C138.95 230.614 138.845 230.764 138.708 230.946C138.572 231.125 138.377 231.286 138.125 231.428C137.872 231.567 137.535 231.636 137.115 231.636ZM137.251 230.733C137.654 230.733 137.995 230.628 138.274 230.418C138.552 230.205 138.764 229.911 138.909 229.536C139.054 229.158 139.126 228.722 139.126 228.227C139.126 227.739 139.055 227.311 138.913 226.945C138.771 226.575 138.561 226.288 138.282 226.084C138.004 225.876 137.66 225.773 137.251 225.773C136.825 225.773 136.47 225.882 136.186 226.101C135.904 226.317 135.693 226.611 135.551 226.983C135.412 227.352 135.342 227.767 135.342 228.227C135.342 228.693 135.413 229.116 135.555 229.497C135.7 229.875 135.913 230.176 136.194 230.401C136.478 230.622 136.831 230.733 137.251 230.733ZM144.841 231.636C144.21 231.636 143.666 231.497 143.208 231.219C142.754 230.938 142.403 230.545 142.156 230.043C141.912 229.537 141.789 228.949 141.789 228.278C141.789 227.608 141.912 227.017 142.156 226.506C142.403 225.991 142.747 225.591 143.187 225.304C143.63 225.014 144.147 224.869 144.738 224.869C145.079 224.869 145.416 224.926 145.748 225.04C146.081 225.153 146.383 225.338 146.656 225.594C146.929 225.847 147.146 226.182 147.308 226.599C147.47 227.017 147.551 227.531 147.551 228.142V228.568H142.505V227.699H146.528C146.528 227.33 146.454 227 146.306 226.71C146.162 226.42 145.954 226.192 145.684 226.024C145.417 225.857 145.102 225.773 144.738 225.773C144.338 225.773 143.991 225.872 143.699 226.071C143.409 226.267 143.186 226.523 143.029 226.838C142.873 227.153 142.795 227.491 142.795 227.852V228.432C142.795 228.926 142.88 229.345 143.051 229.689C143.224 230.03 143.464 230.29 143.771 230.469C144.078 230.645 144.434 230.733 144.841 230.733C145.105 230.733 145.343 230.696 145.556 230.622C145.772 230.545 145.958 230.432 146.115 230.281C146.271 230.128 146.392 229.937 146.477 229.71L147.449 229.983C147.346 230.312 147.174 230.602 146.933 230.852C146.691 231.099 146.393 231.293 146.038 231.432C145.683 231.568 145.284 231.636 144.841 231.636ZM151.552 231.636C151.007 231.636 150.525 231.499 150.108 231.223C149.69 230.945 149.363 230.553 149.127 230.047C148.892 229.538 148.774 228.938 148.774 228.244C148.774 227.557 148.892 226.96 149.127 226.455C149.363 225.949 149.691 225.558 150.112 225.283C150.532 225.007 151.018 224.869 151.569 224.869C151.995 224.869 152.332 224.94 152.579 225.082C152.829 225.222 153.02 225.381 153.15 225.56C153.284 225.736 153.387 225.881 153.461 225.994H153.547V222.773H154.552V231.5H153.581V230.494H153.461C153.387 230.614 153.282 230.764 153.146 230.946C153.01 231.125 152.815 231.286 152.562 231.428C152.309 231.567 151.973 231.636 151.552 231.636ZM151.689 230.733C152.092 230.733 152.433 230.628 152.711 230.418C152.99 230.205 153.201 229.911 153.346 229.536C153.491 229.158 153.564 228.722 153.564 228.227C153.564 227.739 153.493 227.311 153.35 226.945C153.208 226.575 152.998 226.288 152.72 226.084C152.441 225.876 152.098 225.773 151.689 225.773C151.262 225.773 150.907 225.882 150.623 226.101C150.342 226.317 150.13 226.611 149.988 226.983C149.849 227.352 149.779 227.767 149.779 228.227C149.779 228.693 149.85 229.116 149.993 229.497C150.137 229.875 150.35 230.176 150.632 230.401C150.916 230.622 151.268 230.733 151.689 230.733ZM162.96 222.773V231.5H161.903V223.881H161.852L159.721 225.295V224.222L161.903 222.773H162.96ZM168.316 231.619C167.674 231.619 167.127 231.445 166.676 231.095C166.224 230.743 165.879 230.233 165.64 229.565C165.402 228.895 165.282 228.085 165.282 227.136C165.282 226.193 165.402 225.388 165.64 224.72C165.882 224.05 166.228 223.538 166.68 223.186C167.135 222.831 167.68 222.653 168.316 222.653C168.953 222.653 169.497 222.831 169.949 223.186C170.403 223.538 170.75 224.05 170.988 224.72C171.23 225.388 171.35 226.193 171.35 227.136C171.35 228.085 171.231 228.895 170.993 229.565C170.754 230.233 170.409 230.743 169.957 231.095C169.505 231.445 168.958 231.619 168.316 231.619ZM168.316 230.682C168.953 230.682 169.447 230.375 169.799 229.761C170.152 229.148 170.328 228.273 170.328 227.136C170.328 226.381 170.247 225.737 170.085 225.206C169.926 224.675 169.696 224.27 169.395 223.991C169.096 223.713 168.737 223.574 168.316 223.574C167.686 223.574 167.193 223.885 166.838 224.507C166.483 225.126 166.305 226.003 166.305 227.136C166.305 227.892 166.385 228.534 166.544 229.062C166.703 229.591 166.931 229.993 167.23 230.268C167.531 230.544 167.893 230.682 168.316 230.682ZM175.765 231.619C175.18 231.619 174.663 231.516 174.214 231.308C173.768 231.098 173.42 230.81 173.17 230.443C172.92 230.074 172.797 229.653 172.799 229.182C172.797 228.812 172.869 228.472 173.017 228.159C173.164 227.844 173.366 227.581 173.622 227.371C173.88 227.158 174.169 227.023 174.487 226.966V226.915C174.069 226.807 173.737 226.572 173.49 226.212C173.243 225.848 173.12 225.435 173.123 224.972C173.12 224.528 173.233 224.132 173.46 223.783C173.687 223.433 174 223.158 174.397 222.956C174.798 222.754 175.254 222.653 175.765 222.653C176.271 222.653 176.723 222.754 177.12 222.956C177.518 223.158 177.831 223.433 178.058 223.783C178.288 224.132 178.404 224.528 178.407 224.972C178.404 225.435 178.278 225.848 178.028 226.212C177.781 226.572 177.453 226.807 177.044 226.915V226.966C177.359 227.023 177.643 227.158 177.896 227.371C178.149 227.581 178.35 227.844 178.501 228.159C178.652 228.472 178.728 228.812 178.731 229.182C178.728 229.653 178.6 230.074 178.348 230.443C178.098 230.81 177.75 231.098 177.304 231.308C176.86 231.516 176.348 231.619 175.765 231.619ZM175.765 230.682C176.16 230.682 176.501 230.618 176.788 230.49C177.075 230.362 177.297 230.182 177.453 229.949C177.609 229.716 177.689 229.443 177.691 229.131C177.689 228.801 177.603 228.51 177.436 228.257C177.268 228.004 177.039 227.805 176.75 227.661C176.463 227.516 176.135 227.443 175.765 227.443C175.393 227.443 175.061 227.516 174.768 227.661C174.478 227.805 174.25 228.004 174.082 228.257C173.917 228.51 173.836 228.801 173.839 229.131C173.836 229.443 173.912 229.716 174.065 229.949C174.221 230.182 174.444 230.362 174.734 230.49C175.024 230.618 175.368 230.682 175.765 230.682ZM175.765 226.54C176.078 226.54 176.355 226.477 176.596 226.352C176.841 226.227 177.032 226.053 177.172 225.828C177.311 225.604 177.382 225.341 177.385 225.04C177.382 224.744 177.312 224.487 177.176 224.268C177.039 224.047 176.85 223.876 176.609 223.757C176.368 223.635 176.086 223.574 175.765 223.574C175.439 223.574 175.153 223.635 174.909 223.757C174.664 223.876 174.475 224.047 174.342 224.268C174.208 224.487 174.143 224.744 174.146 225.04C174.143 225.341 174.21 225.604 174.346 225.828C174.485 226.053 174.677 226.227 174.922 226.352C175.166 226.477 175.447 226.54 175.765 226.54ZM183.211 231.619C182.569 231.619 182.022 231.445 181.57 231.095C181.119 230.743 180.773 230.233 180.535 229.565C180.296 228.895 180.177 228.085 180.177 227.136C180.177 226.193 180.296 225.388 180.535 224.72C180.776 224.05 181.123 223.538 181.575 223.186C182.029 222.831 182.575 222.653 183.211 222.653C183.847 222.653 184.391 222.831 184.843 223.186C185.298 223.538 185.644 224.05 185.883 224.72C186.124 225.388 186.245 226.193 186.245 227.136C186.245 228.085 186.126 228.895 185.887 229.565C185.648 230.233 185.303 230.743 184.852 231.095C184.4 231.445 183.853 231.619 183.211 231.619ZM183.211 230.682C183.847 230.682 184.342 230.375 184.694 229.761C185.046 229.148 185.222 228.273 185.222 227.136C185.222 226.381 185.141 225.737 184.979 225.206C184.82 224.675 184.59 224.27 184.289 223.991C183.991 223.713 183.631 223.574 183.211 223.574C182.58 223.574 182.087 223.885 181.732 224.507C181.377 225.126 181.2 226.003 181.2 227.136C181.2 227.892 181.279 228.534 181.438 229.062C181.597 229.591 181.826 229.993 182.124 230.268C182.425 230.544 182.788 230.682 183.211 230.682ZM196.37 229.932L191.563 225.125L192.211 224.477L197.018 229.284L196.37 229.932ZM192.211 229.932L191.563 229.284L196.37 224.477L197.018 225.125L192.211 229.932ZM205.593 222.773V231.5H204.536V223.881H204.485L202.354 225.295V224.222L204.536 222.773H205.593ZM210.949 231.619C210.307 231.619 209.76 231.445 209.309 231.095C208.857 230.743 208.512 230.233 208.273 229.565C208.034 228.895 207.915 228.085 207.915 227.136C207.915 226.193 208.034 225.388 208.273 224.72C208.515 224.05 208.861 223.538 209.313 223.186C209.767 222.831 210.313 222.653 210.949 222.653C211.586 222.653 212.13 222.831 212.581 223.186C213.036 223.538 213.382 224.05 213.621 224.72C213.863 225.388 213.983 226.193 213.983 227.136C213.983 228.085 213.864 228.895 213.625 229.565C213.387 230.233 213.042 230.743 212.59 231.095C212.138 231.445 211.591 231.619 210.949 231.619ZM210.949 230.682C211.586 230.682 212.08 230.375 212.432 229.761C212.784 229.148 212.961 228.273 212.961 227.136C212.961 226.381 212.88 225.737 212.718 225.206C212.559 224.675 212.328 224.27 212.027 223.991C211.729 223.713 211.37 223.574 210.949 223.574C210.319 223.574 209.826 223.885 209.471 224.507C209.115 225.126 208.938 226.003 208.938 227.136C208.938 227.892 209.017 228.534 209.176 229.062C209.336 229.591 209.564 229.993 209.863 230.268C210.164 230.544 210.526 230.682 210.949 230.682ZM218.398 231.619C217.813 231.619 217.296 231.516 216.847 231.308C216.401 231.098 216.053 230.81 215.803 230.443C215.553 230.074 215.429 229.653 215.432 229.182C215.429 228.812 215.502 228.472 215.65 228.159C215.797 227.844 215.999 227.581 216.255 227.371C216.513 227.158 216.801 227.023 217.12 226.966V226.915C216.702 226.807 216.37 226.572 216.123 226.212C215.875 225.848 215.753 225.435 215.756 224.972C215.753 224.528 215.865 224.132 216.093 223.783C216.32 223.433 216.632 223.158 217.03 222.956C217.431 222.754 217.887 222.653 218.398 222.653C218.904 222.653 219.355 222.754 219.753 222.956C220.151 223.158 220.463 223.433 220.691 223.783C220.921 224.132 221.037 224.528 221.04 224.972C221.037 225.435 220.911 225.848 220.661 226.212C220.414 226.572 220.086 226.807 219.676 226.915V226.966C219.992 227.023 220.276 227.158 220.529 227.371C220.782 227.581 220.983 227.844 221.134 228.159C221.284 228.472 221.361 228.812 221.364 229.182C221.361 229.653 221.233 230.074 220.98 230.443C220.73 230.81 220.382 231.098 219.936 231.308C219.493 231.516 218.98 231.619 218.398 231.619ZM218.398 230.682C218.793 230.682 219.134 230.618 219.421 230.49C219.708 230.362 219.929 230.182 220.086 229.949C220.242 229.716 220.321 229.443 220.324 229.131C220.321 228.801 220.236 228.51 220.069 228.257C219.901 228.004 219.672 227.805 219.382 227.661C219.096 227.516 218.767 227.443 218.398 227.443C218.026 227.443 217.694 227.516 217.401 227.661C217.111 227.805 216.882 228.004 216.715 228.257C216.55 228.51 216.469 228.801 216.472 229.131C216.469 229.443 216.544 229.716 216.698 229.949C216.854 230.182 217.077 230.362 217.367 230.49C217.657 230.618 218 230.682 218.398 230.682ZM218.398 226.54C218.711 226.54 218.988 226.477 219.229 226.352C219.473 226.227 219.665 226.053 219.804 225.828C219.944 225.604 220.015 225.341 220.017 225.04C220.015 224.744 219.945 224.487 219.809 224.268C219.672 224.047 219.483 223.876 219.242 223.757C219 223.635 218.719 223.574 218.398 223.574C218.071 223.574 217.786 223.635 217.542 223.757C217.297 223.876 217.108 224.047 216.975 224.268C216.841 224.487 216.776 224.744 216.779 225.04C216.776 225.341 216.843 225.604 216.979 225.828C217.118 226.053 217.31 226.227 217.554 226.352C217.799 226.477 218.08 226.54 218.398 226.54ZM225.844 231.619C225.202 231.619 224.655 231.445 224.203 231.095C223.751 230.743 223.406 230.233 223.168 229.565C222.929 228.895 222.81 228.085 222.81 227.136C222.81 226.193 222.929 225.388 223.168 224.72C223.409 224.05 223.756 223.538 224.207 223.186C224.662 222.831 225.207 222.653 225.844 222.653C226.48 222.653 227.024 222.831 227.476 223.186C227.93 223.538 228.277 224.05 228.516 224.72C228.757 225.388 228.878 226.193 228.878 227.136C228.878 228.085 228.759 228.895 228.52 229.565C228.281 230.233 227.936 230.743 227.484 231.095C227.033 231.445 226.486 231.619 225.844 231.619ZM225.844 230.682C226.48 230.682 226.974 230.375 227.327 229.761C227.679 229.148 227.855 228.273 227.855 227.136C227.855 226.381 227.774 225.737 227.612 225.206C227.453 224.675 227.223 224.27 226.922 223.991C226.624 223.713 226.264 223.574 225.844 223.574C225.213 223.574 224.72 223.885 224.365 224.507C224.01 225.126 223.832 226.003 223.832 227.136C223.832 227.892 223.912 228.534 224.071 229.062C224.23 229.591 224.459 229.993 224.757 230.268C225.058 230.544 225.42 230.682 225.844 230.682Z" fill="black"/>
</svg>
