<svg width="18" height="18" viewBox="0 0 24 24" fill="none" xmlns="http://www.w3.org/2000/svg">
<path d="M12 3H5C4.46957 3 3.96086 3.21071 3.58579 3.58579C3.21071 3.96086 3 4.46957 3 5V19C3 19.5304 3.21071 20.0391 3.58579 20.4142C3.96086 20.7893 4.46957 21 5 21H19C19.5304 21 20.0391 20.7893 20.4142 20.4142C20.7893 20.0391 21 19.5304 21 19V12" stroke="#574FF0" stroke-width="2" stroke-linecap="round" stroke-linejoin="round"/>
<path d="M18.375 2.62501C18.7728 2.22719 19.3124 2.00369 19.875 2.00369C20.4376 2.00369 20.9772 2.22719 21.375 2.62501C21.7728 3.02284 21.9963 3.5624 21.9963 4.12501C21.9963 4.68762 21.7728 5.22719 21.375 5.62501L12 15L8 16L9 12L18.375 2.62501Z" stroke="#574FF0" stroke-width="2" stroke-linecap="round" stroke-linejoin="round"/>
</svg>
