<svg width="76" height="75" viewBox="0 0 76 75" fill="none" xmlns="http://www.w3.org/2000/svg">
<rect x="0.5" width="75" height="75" rx="37.5" fill="#F10707"/>
<path d="M50.9304 47.7034C51.2926 48.0656 51.496 48.5567 51.496 49.0689C51.496 49.5811 51.2926 50.0722 50.9304 50.4344C50.5683 50.7965 50.0771 51 49.5649 51C49.0528 51 48.5616 50.7965 48.1995 50.4344L38.0001 40.2318L27.7974 50.4312C27.4353 50.7933 26.9441 50.9968 26.4319 50.9968C25.9198 50.9968 25.4286 50.7933 25.0665 50.4312C24.7043 50.069 24.5009 49.5779 24.5009 49.0657C24.5009 48.5535 24.7043 48.0624 25.0665 47.7002L35.2691 37.5008L25.0697 27.2982C24.7075 26.936 24.5041 26.4449 24.5041 25.9327C24.5041 25.4205 24.7075 24.9294 25.0697 24.5672C25.4318 24.2051 25.923 24.0016 26.4352 24.0016C26.9473 24.0016 27.4385 24.2051 27.8007 24.5672L38.0001 34.7698L48.2027 24.5656C48.5648 24.2035 49.056 24 49.5682 24C50.0803 24 50.5715 24.2035 50.9336 24.5656C51.2958 24.9278 51.4992 25.4189 51.4992 25.9311C51.4992 26.4433 51.2958 26.9344 50.9336 27.2966L40.731 37.5008L50.9304 47.7034Z" fill="white"/>
</svg>
