<svg width="24" height="24" viewBox="0 0 24 24" fill="none" xmlns="http://www.w3.org/2000/svg">
<path d="M9.783 3.49999C10.4758 3.17113 11.2331 3.00052 12 3.00052C12.7669 3.00052 13.5242 3.17113 14.217 3.49999L20.908 6.63699C22.364 7.31899 22.364 9.68099 20.908 10.363L14.218 13.5C13.5251 13.829 12.7676 13.9997 12.0005 13.9997C11.2334 13.9997 10.4759 13.829 9.783 13.5L3.092 10.363C1.636 9.68099 1.636 7.31899 3.092 6.63699L9.783 3.49999Z" stroke="white" stroke-width="1.5"/>
<path d="M2 8.5V14M19 11.5V16.625C19 17.633 18.497 18.577 17.615 19.065C16.146 19.88 13.796 21 12 21C10.204 21 7.854 19.879 6.385 19.066C5.504 18.577 5 17.633 5 16.626V11.5" stroke="white" stroke-width="1.5" stroke-linecap="round"/>
</svg>
