<svg width="24" height="24" viewBox="0 0 24 24" fill="none" xmlns="http://www.w3.org/2000/svg">
<path d="M3 6.25C3 5.38805 3.34241 4.5614 3.9519 3.9519C4.5614 3.34241 5.38805 3 6.25 3H17.75C18.612 3 19.4386 3.34241 20.0481 3.9519C20.6576 4.5614 21 5.38805 21 6.25V17.75C21 18.612 20.6576 19.4386 20.0481 20.0481C19.4386 20.6576 18.612 21 17.75 21H14.214C14.62 20.568 14.945 20.06 15.167 19.5H17.75C18.2141 19.5 18.6592 19.3156 18.9874 18.9874C19.3156 18.6592 19.5 18.2141 19.5 17.75V6.25C19.5 5.78587 19.3156 5.34075 18.9874 5.01256C18.6592 4.68437 18.2141 4.5 17.75 4.5H6.25C5.78587 4.5 5.34075 4.68437 5.01256 5.01256C4.68438 5.34075 4.5 5.78587 4.5 6.25V8.833C3.94453 9.05354 3.43564 9.37685 3 9.786V6.25ZM13.49 19.5C13.1962 19.9602 12.7912 20.339 12.3122 20.6011C11.8333 20.8633 11.296 21.0005 10.75 21H6.25C5.38805 21 4.5614 20.6576 3.9519 20.0481C3.34241 19.4386 3 18.612 3 17.75V13.25C2.99961 12.8231 3.0834 12.4003 3.24659 12.0058C3.40978 11.6113 3.64916 11.2529 3.95102 10.951C4.25289 10.6492 4.61133 10.4098 5.00581 10.2466C5.4003 10.0834 5.82309 9.99961 6.25 10H10.75C11.1768 10 11.5994 10.0841 11.9937 10.2474C12.388 10.4107 12.7463 10.6501 13.0481 10.9519C13.3499 11.2537 13.5893 11.612 13.7526 12.0063C13.9159 12.4006 14 12.8232 14 13.25V17.75C14 18.394 13.813 18.995 13.49 19.5ZM4.5 13.25V17.75C4.5 18.716 5.284 19.5 6.25 19.5H10.75C11.2141 19.5 11.6592 19.3156 11.9874 18.9874C12.3156 18.6592 12.5 18.2141 12.5 17.75V13.25C12.5 12.7859 12.3156 12.3408 11.9874 12.0126C11.6592 11.6844 11.2141 11.5 10.75 11.5H6.25C5.78587 11.5 5.34075 11.6844 5.01256 12.0126C4.68438 12.3408 4.5 12.7859 4.5 13.25Z" fill="white"/>
</svg>
